<?xml version="1.0" encoding="utf-8"?><svg xmlns="http://www.w3.org/2000/svg" xmlns:xlink="http://www.w3.org/1999/xlink"><symbol viewBox="0 0 512 512" id="account" xmlns="http://www.w3.org/2000/svg"><path d="M512 256C512 114.512 397.504 0 256 0 114.512 0 0 114.496 0 256c0 140.234 113.54 256 256 256 141.875 0 256-115.121 256-256zM256 30c124.617 0 226 101.383 226 226 0 45.586-13.559 89.402-38.703 126.516-100.969-108.61-273.442-108.805-374.594 0C43.56 345.402 30 301.586 30 256 30 131.383 131.383 30 256 30zM87.414 406.5c89.773-100.695 247.422-100.672 337.168 0-90.074 100.773-247.055 100.805-337.168 0zm0 0"/><path d="M256 271c49.625 0 90-40.375 90-90v-30c0-49.625-40.375-90-90-90s-90 40.375-90 90v30c0 49.625 40.375 90 90 90zm-60-120c0-33.086 26.914-60 60-60s60 26.914 60 60v30c0 33.086-26.914 60-60 60s-60-26.914-60-60zm0 0"/></symbol><symbol viewBox="0 0 492 492" id="back" xmlns="http://www.w3.org/2000/svg"><path d="M198.608 246.104L382.664 62.04c5.068-5.056 7.856-11.816 7.856-19.024 0-7.212-2.788-13.968-7.856-19.032l-16.128-16.12C361.476 2.792 354.712 0 347.504 0s-13.964 2.792-19.028 7.864L109.328 227.008c-5.084 5.08-7.868 11.868-7.848 19.084-.02 7.248 2.76 14.028 7.848 19.112l218.944 218.932c5.064 5.072 11.82 7.864 19.032 7.864 7.208 0 13.964-2.792 19.032-7.864l16.124-16.12c10.492-10.492 10.492-27.572 0-38.06L198.608 246.104z"/></symbol><symbol viewBox="0 0 508 508" id="bell" xmlns="http://www.w3.org/2000/svg"><path d="M452.348 416.6h-7.9c-24.8-31.6-38.5-70.7-38.5-110.9v-88.6c0-69.9-47.5-128.8-111.9-146.4 4.2-7 6.7-15.2 6.7-24 0-25.7-20.9-46.7-46.7-46.7s-46.7 21-46.7 46.7c0 8.8 2.5 17 6.7 24-64.4 17.6-111.9 76.5-111.9 146.4v88.6c0 40.3-13.7 79.3-38.5 110.9h-7.8c-7.8 0-14.1 6.3-14.1 14.1s6.3 14.1 14.1 14.1h122.2c6.7 35.9 38.2 63.2 75.9 63.2 37.8 0 69.3-27.3 75.9-63.2h122.3c7.8 0 14.1-6.3 14.1-14.1.2-7.8-6.2-14.1-13.9-14.1zm-198.3-388.4c10.2 0 18.5 8.3 18.5 18.5s-8.3 18.5-18.5 18.5-18.5-8.3-18.5-18.5 8.3-18.5 18.5-18.5zm0 451.6c-22.2 0-40.9-14.8-47-35h94c-6.1 20.2-24.8 35-47 35zm-155.7-63.2c20.8-33 32.1-71.5 32.1-110.9v-88.6c0-68.2 55.5-123.7 123.7-123.7s123.7 55.5 123.7 123.7v88.6c0 39.4 11.2 77.9 32 110.9h-311.5z"/></symbol><symbol viewBox="0 0 512 512" id="box" xmlns="http://www.w3.org/2000/svg"><path d="M491.729 112.971L259.261.745a7.503 7.503 0 0 0-6.521 0L20.271 112.971a7.5 7.5 0 0 0-4.239 6.754v272.549a7.5 7.5 0 0 0 4.239 6.754l232.468 112.226a7.504 7.504 0 0 0 6.522 0l232.468-112.226a7.5 7.5 0 0 0 4.239-6.754V119.726a7.502 7.502 0 0 0-4.239-6.755zM256 15.828l215.217 103.897-62.387 30.118a7.434 7.434 0 0 0-1.27-.8L193.805 45.853 256 15.828zm-79.133 38.505l214.904 103.746-44.015 21.249L132.941 75.624l43.926-21.291zm219.932 117.974v78.546l-41.113 19.848v-78.546l41.113-19.848zm84.169 215.261L263.5 492.55V236.658l51.873-25.042a7.5 7.5 0 1 0-6.522-13.508L256 223.623l-20.796-10.04a7.498 7.498 0 0 0-10.015 3.493 7.5 7.5 0 0 0 3.493 10.015l19.818 9.567V492.55L31.032 387.566V131.674l165.6 79.945a7.463 7.463 0 0 0 3.255.748 7.5 7.5 0 0 0 3.266-14.256l-162.37-78.386 74.505-35.968L340.582 192.52c.033.046.07.087.104.132v89.999a7.502 7.502 0 0 0 10.761 6.754l56.113-27.089a7.499 7.499 0 0 0 4.239-6.754v-90.495l69.169-33.392v255.893z"/><path d="M92.926 358.479L58.811 342.01a7.5 7.5 0 0 0-6.522 13.508l34.115 16.469a7.463 7.463 0 0 0 3.255.748 7.5 7.5 0 0 0 6.759-4.241 7.499 7.499 0 0 0-3.492-10.015zm31.397-20.437l-65.465-31.604a7.501 7.501 0 0 0-6.521 13.509l65.465 31.604a7.477 7.477 0 0 0 3.255.748 7.5 7.5 0 0 0 3.266-14.257z"/></symbol><symbol viewBox="0 0 512 512" id="diamond" xmlns="http://www.w3.org/2000/svg"><path d="M510.362 215.571l-81.99-125.025a10 10 0 0 0-8.361-4.516H92.378c-3.363 0-6.5 1.69-8.35 4.499L1.906 215.181a9.997 9.997 0 0 0 .572 12.46l41.625 47.527c3.639 4.155 9.955 4.573 14.109.935 4.154-3.639 4.572-9.956.934-14.109l-27.097-30.941H166.55L234.137 461.8l-76.375-87.205c-3.638-4.155-9.956-4.573-14.109-.935-4.154 3.639-4.572 9.956-.934 14.109l105.79 120.791a9.993 9.993 0 0 0 15.043-.001l112.63-128.632c3.639-4.155 3.22-10.472-.936-14.109-4.156-3.639-10.473-3.22-14.109.936l-83.21 95.033 67.584-230.735h134.445l-62.183 71.02c-3.639 4.155-3.22 10.472.936 14.109a9.957 9.957 0 0 0 6.583 2.477 9.972 9.972 0 0 0 7.526-3.413l76.706-87.605a9.997 9.997 0 0 0 .838-12.069zm-481.789-4.516l63.785-96.821 63.495 96.821H28.573zm82.319-105.026h126.623l-63.311 96.541-63.312-96.541zm145.138 8.234l63.475 96.792h-126.95l63.475-96.792zm0 351.14l-68.642-234.35h137.284l-68.642 234.35zm81.99-262.582l-63.475-96.792h126.952l-63.477 96.792zm18.515 8.234l63.476-96.792 63.474 96.792h-126.95z"/><path d="M157.189 327.017c-25.793 0-46.778-20.985-46.778-46.778 0-5.522-4.477-9.999-9.999-9.999s-9.999 4.477-9.999 9.999c0 25.793-20.985 46.778-46.778 46.778-5.521 0-9.999 4.477-9.999 9.999s4.478 9.999 9.999 9.999c25.793 0 46.778 20.985 46.778 46.778 0 5.522 4.478 9.999 9.999 9.999s9.999-4.477 9.999-9.999c0-25.793 20.985-46.778 46.778-46.778 5.522 0 9.999-4.477 9.999-9.999s-4.477-9.999-9.999-9.999zm-56.777 31.66a67.301 67.301 0 0 0-21.66-21.661 67.291 67.291 0 0 0 21.66-21.661 67.301 67.301 0 0 0 21.66 21.661 67.301 67.301 0 0 0-21.66 21.661zM502.001 40.023c-16.54 0-29.997-13.457-29.997-29.997 0-5.522-4.478-9.999-9.999-9.999s-9.999 4.477-9.999 9.999c0 16.54-13.457 29.997-29.997 29.997-5.521 0-9.999 4.477-9.999 9.999s4.478 9.999 9.999 9.999c16.54 0 29.997 13.457 29.997 29.997 0 5.522 4.478 9.999 9.999 9.999s9.999-4.477 9.999-9.999c0-16.54 13.457-29.997 29.997-29.997 5.521 0 9.999-4.477 9.999-9.999s-4.478-9.999-9.999-9.999zm-39.996 20.029a50.434 50.434 0 0 0-10.03-10.03 50.434 50.434 0 0 0 10.03-10.03 50.434 50.434 0 0 0 10.03 10.03 50.382 50.382 0 0 0-10.03 10.03zm-59.222 275.319a10.028 10.028 0 0 0-7.068-2.93c-2.631 0-5.199 1.06-7.069 2.93-1.86 1.86-2.93 4.44-2.93 7.069s1.069 5.209 2.93 7.069a10.072 10.072 0 0 0 7.069 2.93c2.63 0 5.209-1.07 7.068-2.93 1.86-1.86 2.931-4.44 2.931-7.069s-1.07-5.209-2.931-7.069z"/></symbol><symbol viewBox="0 0 511.912 511.912" id="flower" xmlns="http://www.w3.org/2000/svg"><path d="M484.291 139.159c-11.139-8.862-25.481-12.109-39.353-8.911l-21.146 4.878 18.402-11.504c12.07-7.545 19.916-19.984 21.525-34.127 1.61-14.143-3.239-28.027-13.304-38.091-10.065-10.066-23.955-14.917-38.092-13.305-14.144 1.61-26.582 9.456-34.128 21.526l-11.503 18.401 4.878-21.145c3.198-13.87-.049-28.213-8.911-39.353C353.797 6.389 340.551 0 326.317 0s-27.48 6.389-36.343 17.527c-8.862 11.139-12.109 25.482-8.91 39.353l4.878 21.147-11.504-18.403c-7.546-12.07-19.984-19.916-34.128-21.526-14.138-1.608-28.026 3.239-38.091 13.305-10.065 10.064-14.915 23.948-13.305 38.091 1.609 14.143 9.455 26.582 21.525 34.127l18.402 11.504-21.146-4.878c-13.871-3.2-28.213.048-39.353 8.911-11.139 8.862-17.527 22.108-17.527 36.343 0 14.234 6.389 27.48 17.527 36.342 8.33 6.627 18.45 10.115 28.826 10.114 3.499 0 7.028-.397 10.526-1.204l21.146-4.878-18.4 11.505c-12.07 7.545-19.916 19.984-21.525 34.127-1.61 14.143 3.239 28.027 13.304 38.091 8.797 8.796 20.507 13.609 32.76 13.608 1.768 0 3.549-.1 5.333-.303 14.143-1.61 26.581-9.456 34.127-21.526l11.503-18.401-4.878 21.145c-2.874 12.463-.528 25.3 6.404 35.859l-9.968 23.154a226.272 226.272 0 0 0-11.901 35.458c-8.344-18.757-22.586-34.682-40.868-44.925a35.877 35.877 0 0 0 4.2-3.594 6.84 6.84 0 0 0 .367-.394l.034-.04a7.5 7.5 0 0 0-11.083-10.098 20.37 20.37 0 0 1-16.719 5.791 20.371 20.371 0 0 1-15.047-9.49l-24.644-39.423-1.351-5.857c9.713-6.946 16.061-18.309 16.061-31.134a38.012 38.012 0 0 0-3.131-15.167 7.501 7.501 0 0 0-13.769 5.952 23.082 23.082 0 0 1 1.9 9.215c0 12.828-10.437 23.264-23.264 23.264s-23.264-10.436-23.264-23.264 10.437-23.264 23.264-23.264c1.406 0 2.844.134 4.274.4a7.501 7.501 0 0 0 2.734-14.749 38.551 38.551 0 0 0-7.009-.651c-2.831 0-5.587.318-8.245.904l-11.706-50.754a20.367 20.367 0 0 1 3.929-17.351 20.366 20.366 0 0 1 16.022-7.727c1.826 0 3.652.245 5.427.729a7.5 7.5 0 0 0 3.945-14.472 35.66 35.66 0 0 0-9.372-1.257c-10.873 0-20.991 4.88-27.761 13.388-6.77 8.509-9.251 19.465-6.807 30.061l.671 2.91-1.583-2.533c-5.763-9.219-15.264-15.212-26.067-16.442s-21.409 2.474-29.099 10.163c-7.688 7.688-11.393 18.294-10.162 29.097 1.229 10.803 7.223 20.305 16.442 26.069l2.529 1.581-2.906-.67c-10.596-2.444-21.552.037-30.061 6.807s-13.389 16.888-13.389 27.761 4.88 20.991 13.389 27.761c6.363 5.063 14.094 7.727 22.02 7.726 2.673 0 5.369-.303 8.041-.919l2.907-.671-2.53 1.582c-9.22 5.764-15.213 15.266-16.442 26.069-1.23 10.804 2.474 21.409 10.163 29.097 6.719 6.719 15.664 10.395 25.023 10.395 1.352 0 2.712-.077 4.074-.232 10.804-1.23 20.305-7.223 26.067-16.442l1.582-2.53-.671 2.908c-2.443 10.595.038 21.552 6.808 30.06 6.77 8.509 16.888 13.389 27.761 13.389s20.991-4.88 27.761-13.389c6.77-8.508 9.251-19.465 6.807-30.06l-.671-2.908 1.582 2.53c5.764 9.22 15.266 15.213 26.068 16.443 1.364.155 2.723.231 4.074.231.119 0 .238-.008.357-.009l7.136 3.243c28.443 12.924 47.081 41.461 47.482 72.701l.014 1.1a36.518 36.518 0 0 0-21.532-7.002h-25.492c-7.73 0-14.02 6.289-14.02 14.02v13.537c0 20.25 16.475 36.724 36.724 36.724h24.512v19.629c0 4.142 3.357 7.5 7.5 7.5s7.5-3.358 7.5-7.5v-32.143h31.066c.856 0 1.767-.03 2.783-.091a7.5 7.5 0 0 0 7.037-7.936 7.485 7.485 0 0 0-7.936-7.037 32.27 32.27 0 0 1-1.885.063h-31.066v-13.426c0-16.994 13.825-30.819 30.819-30.819h31.066v13.427c0 6.78-2.163 13.214-6.255 18.605a7.5 7.5 0 1 0 11.949 9.068c6.088-8.022 9.306-17.592 9.306-27.674v-13.685c0-8.129-6.613-14.742-14.742-14.742h-31.324c-10.5 0-20.18 3.559-27.916 9.523a210.155 210.155 0 0 1 14.284-48.479l7.399-17.185c7.903 5.875 17.518 9.121 27.642 9.121 14.234 0 27.48-6.389 36.343-17.527 8.862-11.139 12.109-25.482 8.91-39.353l-4.878-21.147 11.504 18.403c7.546 12.07 19.984 19.916 34.127 21.526 1.784.203 3.564.303 5.333.303 12.252 0 23.964-4.813 32.759-13.608 10.065-10.064 14.915-23.948 13.305-38.091-1.609-14.143-9.455-26.582-21.525-34.128l-2.843-1.777a7.5 7.5 0 0 0-10.335 2.385 7.5 7.5 0 0 0 2.384 10.335l2.843 1.776c8.172 5.108 13.483 13.53 14.573 23.105s-2.193 18.975-9.008 25.789c-6.814 6.814-16.218 10.102-25.788 9.007-9.575-1.09-17.997-6.402-23.105-14.573l-34.567-55.296-2.439-10.575a50.373 50.373 0 0 0 2.274-1.582l25.487 25.487a7.476 7.476 0 0 0 5.304 2.197 7.5 7.5 0 0 0 5.304-12.803l-25.488-25.488a51.2 51.2 0 0 0 1.582-2.274l10.577 2.44L404 221.194a7.496 7.496 0 0 0 11.419-7.248l29.518 6.809a46.808 46.808 0 0 0 10.526 1.204c10.375 0 20.497-3.487 28.826-10.114 11.139-8.862 17.527-22.108 17.527-36.342.002-14.236-6.387-27.482-17.525-36.344zM61.872 201.233c-5.321-3.327-8.78-8.811-9.49-15.046s1.428-12.357 5.865-16.794a20.384 20.384 0 0 1 16.796-5.866 20.37 20.37 0 0 1 15.045 9.49l24.646 39.425 1.35 5.855a38.563 38.563 0 0 0-8.932 8.933l-5.855-1.351zm-11.7 68.149a20.363 20.363 0 0 1-17.351-3.929 20.369 20.369 0 0 1-7.728-16.023 20.364 20.364 0 0 1 7.728-16.022 20.37 20.37 0 0 1 17.351-3.929l50.754 11.707c-.586 2.657-.904 5.413-.904 8.244s.318 5.587.904 8.244zm39.915 56.462a20.37 20.37 0 0 1-15.045 9.49 20.378 20.378 0 0 1-16.796-5.866c-4.438-4.438-6.575-10.559-5.865-16.794s4.169-11.72 9.49-15.046l39.424-24.645 5.856-1.351a38.559 38.559 0 0 0 8.932 8.932l-1.351 5.858zm64.221 29.05c-3.907 4.911-9.747 7.728-16.022 7.728s-12.115-2.816-16.022-7.728-5.34-11.235-3.93-17.35l11.707-50.754c2.657.586 5.414.904 8.245.904s5.587-.318 8.245-.904l11.706 50.754a20.368 20.368 0 0 1-3.929 17.35zm80.269 114.889c-11.979 0-21.724-9.745-21.724-21.724v-12.556h24.512c11.979 0 21.724 9.745 21.724 21.724v12.556zM390.915 67.576c5.108-8.171 13.53-13.483 23.105-14.573 9.574-1.09 18.974 2.193 25.789 9.007 6.813 6.814 10.097 16.213 9.007 25.789-1.09 9.575-6.401 17.997-14.573 23.105l-55.294 34.566-10.578 2.44a50.373 50.373 0 0 0-1.582-2.274l25.488-25.488a7.5 7.5 0 0 0-10.607-10.606l-25.487 25.487a50.353 50.353 0 0 0-2.274-1.581l2.44-10.576zm-64.598 143.249c-19.478 0-35.323-15.846-35.323-35.323s15.846-35.323 35.323-35.323 35.323 15.846 35.323 35.323-15.846 35.323-35.323 35.323zM301.712 26.866c6-7.541 14.968-11.866 24.604-11.866s18.604 4.325 24.604 11.866c6 7.542 8.198 17.252 6.033 26.643l-16.97 73.571a49.815 49.815 0 0 0-6.167-1.34V89.72c0-4.142-3.357-7.5-7.5-7.5s-7.5 3.358-7.5 7.5v36.02a49.958 49.958 0 0 0-6.167 1.34l-16.97-73.571c-2.165-9.391.033-19.101 6.033-26.643zm-83.321 84.037c-8.172-5.108-13.483-13.53-14.573-23.105s2.193-18.975 9.008-25.789c6.813-6.814 16.221-10.096 25.788-9.007 9.575 1.09 17.997 6.402 23.105 14.573l34.567 55.296 2.439 10.576a50.403 50.403 0 0 0-2.275 1.582l-25.488-25.488a7.5 7.5 0 0 0-10.606 10.606l25.488 25.488a51.2 51.2 0 0 0-1.582 2.274l-10.578-2.44zm-14.066 95.235c-9.393 2.167-19.103-.033-26.643-6.033-7.541-6-11.866-14.967-11.866-24.604s4.325-18.605 11.866-24.605c7.542-6 17.255-8.199 26.643-6.032l73.571 16.97a49.775 49.775 0 0 0-1.34 6.167h-36.019c-4.143 0-7.5 3.358-7.5 7.5s3.357 7.5 7.5 7.5h36.019a49.942 49.942 0 0 0 1.34 6.166zm57.394 77.289c-5.108 8.171-13.53 13.483-23.105 14.573-9.568 1.092-18.974-2.192-25.789-9.007-6.813-6.814-10.097-16.213-9.007-25.789 1.09-9.575 6.401-17.997 14.573-23.105l55.294-34.566 10.577-2.44a50.373 50.373 0 0 0 1.582 2.274l-25.488 25.488a7.5 7.5 0 0 0 5.304 12.803 7.478 7.478 0 0 0 5.304-2.197l25.488-25.487a51.2 51.2 0 0 0 2.274 1.582l-2.44 10.576zm95.235 14.067c2.166 9.391-.032 19.101-6.032 26.643-6 7.541-14.968 11.866-24.604 11.866s-18.604-4.325-24.604-11.866c-6-7.542-8.198-17.252-6.033-26.643l16.97-73.571a49.815 49.815 0 0 0 6.167 1.34v36.019c0 4.142 3.357 7.5 7.5 7.5s7.5-3.358 7.5-7.5v-36.019a49.958 49.958 0 0 0 6.167-1.34zm117.998-97.389c-7.541 6-17.253 8.2-26.643 6.033l-73.57-16.97a49.76 49.76 0 0 0 1.34-6.166h36.019c4.143 0 7.5-3.358 7.5-7.5s-3.357-7.5-7.5-7.5h-36.019a49.998 49.998 0 0 0-1.34-6.167l73.571-16.97c9.393-2.167 19.103.034 26.643 6.032 7.541 6 11.866 14.968 11.866 24.605s-4.326 18.604-11.867 24.603z"/></symbol><symbol viewBox="0 0 512 512" id="instagram" xmlns="http://www.w3.org/2000/svg"><path d="M352 0H160C71.648 0 0 71.648 0 160v192c0 88.352 71.648 160 160 160h192c88.352 0 160-71.648 160-160V160C512 71.648 440.352 0 352 0zm112 352c0 61.76-50.24 112-112 112H160c-61.76 0-112-50.24-112-112V160C48 98.24 98.24 48 160 48h192c61.76 0 112 50.24 112 112v192z"/><path d="M256 128c-70.688 0-128 57.312-128 128s57.312 128 128 128 128-57.312 128-128-57.312-128-128-128zm0 208c-44.096 0-80-35.904-80-80 0-44.128 35.904-80 80-80s80 35.872 80 80c0 44.096-35.904 80-80 80z"/><circle cx="393.6" cy="118.4" r="17.056"/></symbol><symbol viewBox="0 0 492.004 492.004" id="next" xmlns="http://www.w3.org/2000/svg"><path d="M382.678 226.804L163.73 7.86C158.666 2.792 151.906 0 144.698 0s-13.968 2.792-19.032 7.86l-16.124 16.12c-10.492 10.504-10.492 27.576 0 38.064L293.398 245.9l-184.06 184.06c-5.064 5.068-7.86 11.824-7.86 19.028 0 7.212 2.796 13.968 7.86 19.04l16.124 16.116c5.068 5.068 11.824 7.86 19.032 7.86s13.968-2.792 19.032-7.86L382.678 265c5.076-5.084 7.864-11.872 7.848-19.088.016-7.244-2.772-14.028-7.848-19.108z"/></symbol><symbol viewBox="0 0 24 24" id="odnoklassniki" xmlns="http://www.w3.org/2000/svg"><path d="M19.223 12.484c-.606-1.183-2.081-1.632-3.525-.497-.014.011-1.444 1.108-3.695 1.108s-3.681-1.098-3.695-1.108c-1.438-1.136-2.925-.691-3.527.5l-.005.01c-.895 1.831.583 2.785 1.772 3.552.735.473 1.675.83 2.804 1.066l-3.205 3.212c-1.935 1.931 1.097 4.978 3.052 3.067l2.814-2.828a560.698 560.698 0 0 1 2.82 2.839c1.93 1.895 4.982-1.099 3.058-3.074-2.295-2.293-2.789-2.788-3.223-3.215 2.396-.513 5.729-2.194 4.555-4.632zm-6.025 3.355c-.518-.249-1.206.697-.64 1.285l.006.006.004.004.005.005 4.249 4.245c.538.553-.41 1.467-.931.959-.93-.946-2.405-2.423-3.35-3.37a.75.75 0 0 0-1.062 0l-3.338 3.354c-.529.517-1.472-.406-.936-.941l4.244-4.252.005-.006c.527-.518-.005-1.478-.625-1.295-1.477-.173-2.674-.534-3.471-1.046-1.54-.995-1.463-1.17-1.24-1.627.648-1.241 1.796 1.435 5.883 1.435 2.799 0 4.555-1.375 4.624-1.43.456-.358.991-.525 1.254-.014.223.463.306.636-1.238 1.639-1.054.671-2.544.942-3.443 1.049zm-1.199-5.842a3.55 3.55 0 0 0 3.543-3.548c0-1.964-1.589-3.562-3.543-3.562-1.953 0-3.542 1.598-3.542 3.562a3.548 3.548 0 0 0 3.542 3.548zm0-5.61c1.126 0 2.043.925 2.043 2.062 0 1.129-.917 2.048-2.043 2.048s-2.043-.919-2.043-2.049c0-1.136.916-2.061 2.043-2.061z"/><path d="M11.999 12.883a6.444 6.444 0 0 0 6.437-6.435C18.435 2.893 15.548 0 11.999 0S5.562 2.893 5.562 6.448a6.443 6.443 0 0 0 6.437 6.435zm0-11.383c2.722 0 4.937 2.22 4.937 4.948a4.941 4.941 0 0 1-4.937 4.935 4.941 4.941 0 0 1 0-9.883z"/></symbol><symbol viewBox="0 0 512.076 512.076" id="phone" xmlns="http://www.w3.org/2000/svg"><path d="M498.639 395.039l-103.646-69.12c-13.153-8.701-30.784-5.838-40.508 6.579l-30.191 38.818a12.903 12.903 0 0 1-16.546 3.482l-5.743-3.166c-19.038-10.377-42.726-23.296-90.453-71.04s-60.672-71.45-71.049-90.453l-3.149-5.743a12.92 12.92 0 0 1 3.413-16.606l38.792-30.182c12.412-9.725 15.279-27.351 6.588-40.508l-69.12-103.646C108.12.056 90.25-3.966 76.461 4.323L33.12 30.358A61.136 61.136 0 0 0 5.242 66.539c-15.607 56.866-3.866 155.008 140.706 299.597 115.004 114.995 200.619 145.92 259.465 145.92a151.181 151.181 0 0 0 40.107-5.239 61.079 61.079 0 0 0 36.181-27.878l26.061-43.315c8.301-13.792 4.281-31.673-9.123-40.585zm-5.581 31.829l-26.001 43.341a44.103 44.103 0 0 1-26.027 20.173c-52.497 14.413-144.213 2.475-283.008-136.32S7.29 123.559 21.703 71.054a44.17 44.17 0 0 1 20.198-26.061l43.341-26.001c5.983-3.6 13.739-1.855 17.604 3.959l37.547 56.371 31.514 47.266c3.774 5.707 2.534 13.356-2.85 17.579l-38.801 30.182c-11.808 9.029-15.18 25.366-7.91 38.332l3.081 5.598c10.906 20.002 24.465 44.885 73.967 94.379 49.502 49.493 74.377 63.053 94.37 73.958l5.606 3.089c12.965 7.269 29.303 3.898 38.332-7.91l30.182-38.801c4.224-5.381 11.87-6.62 17.579-2.85l103.637 69.12c5.818 3.862 7.563 11.622 3.958 17.604zM290.161 85.39c80.081.089 144.977 64.986 145.067 145.067 0 4.713 3.82 8.533 8.533 8.533s8.533-3.82 8.533-8.533c-.099-89.503-72.63-162.035-162.133-162.133-4.713 0-8.533 3.82-8.533 8.533s3.82 8.533 8.533 8.533z"/><path d="M290.161 136.59c51.816.061 93.806 42.051 93.867 93.867a8.533 8.533 0 0 0 17.066 0c-.071-61.238-49.696-110.863-110.933-110.933-4.713 0-8.533 3.82-8.533 8.533s3.82 8.533 8.533 8.533z"/><path d="M290.161 187.79c23.552.028 42.638 19.114 42.667 42.667a8.533 8.533 0 0 0 17.066 0c-.038-32.974-26.759-59.696-59.733-59.733-4.713 0-8.533 3.82-8.533 8.533s3.82 8.533 8.533 8.533z"/></symbol><symbol viewBox="0 0 511.998 511.998" id="pin" xmlns="http://www.w3.org/2000/svg"><path d="M167.974 350.473c21.086 29.73 42.138 56.32 56.09 73.446 2.031 2.492 3.934 4.804 5.777 7.031h-42.103c-4.713 0-8.533 3.82-8.533 8.533s3.82 8.533 8.533 8.533H324.27c4.713 0 8.533-3.82 8.533-8.533s-3.82-8.533-8.533-8.533h-42.103c1.843-2.227 3.746-4.54 5.786-7.031 13.943-17.067 34.987-43.716 56.081-73.446a749.756 749.756 0 0 0 56.371-90.854c17.425-34.219 26.266-62.626 26.266-84.437a170.55 170.55 0 0 0-49.98-120.841 8.532 8.532 0 1 0-12.075 12.057 153.55 153.55 0 0 1 44.988 108.783c0 19.098-8.209 44.902-24.405 76.689a732.814 732.814 0 0 1-55.091 88.747c-20.804 29.346-41.6 55.637-55.381 72.533a1511.437 1511.437 0 0 1-12.22 14.78 8.642 8.642 0 0 1-13.004 0 1513.93 1513.93 0 0 1-12.22-14.78c-13.781-16.887-34.577-43.179-55.381-72.533a732.814 732.814 0 0 1-55.091-88.747c-16.213-31.787-24.405-57.591-24.405-76.689-.005-61.809 36.959-117.627 93.867-141.747a154.58 154.58 0 0 1 119.552 0 8.535 8.535 0 1 0 6.664-15.718c-86.898-36.652-187.056 4.062-223.735 90.948a170.04 170.04 0 0 0-13.414 66.517c0 21.811 8.841 50.219 26.266 84.48a749.234 749.234 0 0 0 56.368 90.812z"/><path d="M256.003 98.151c4.713 0 8.533-3.82 8.533-8.533s-3.82-8.533-8.533-8.533c-40.71-.001-75.752 28.757-83.695 68.685-7.943 39.928 13.426 79.906 51.037 95.486 37.611 15.58 80.99 2.421 103.608-31.428 22.618-33.849 18.175-78.962-10.611-107.749a8.534 8.534 0 1 0-12.066 12.066c23.03 23.029 26.585 59.118 8.492 86.198-18.093 27.08-52.796 37.608-82.885 25.146-30.089-12.462-47.185-44.444-40.833-76.387s34.385-54.95 66.953-54.951zm252.783 371.806l-52.48-93.867a26.522 26.522 0 0 0-23.219-13.406H372.27c-4.713 0-8.533 3.82-8.533 8.533s3.82 8.533 8.533 8.533h60.817a9.464 9.464 0 0 1 8.337 4.659l52.463 93.867a7.68 7.68 0 0 1-.077 7.885 9.387 9.387 0 0 1-8.26 4.523H26.457a9.387 9.387 0 0 1-8.252-4.523 7.681 7.681 0 0 1-.077-7.885l52.463-93.867a9.454 9.454 0 0 1 8.328-4.659h60.817c4.713 0 8.533-3.82 8.533-8.533s-3.82-8.533-8.533-8.533H78.92a26.537 26.537 0 0 0-23.236 13.406L3.212 469.957a24.748 24.748 0 0 0 .265 24.841 26.284 26.284 0 0 0 22.98 12.954H485.55a26.282 26.282 0 0 0 22.972-12.954 24.746 24.746 0 0 0 .264-24.841z"/><path d="M418.137 405.351h-34.133a8.583 8.583 0 0 0-4.736 1.434l-25.6 17.067a8.535 8.535 0 0 0 9.472 14.2l23.424-15.633h31.573a8.533 8.533 0 0 0 8.533-8.533 8.533 8.533 0 0 0-8.533-8.535zm-51.2 59.733a8.533 8.533 0 0 0 8.533 8.533h68.267c4.713 0 8.533-3.82 8.533-8.533s-3.82-8.533-8.533-8.533H375.47a8.533 8.533 0 0 0-8.533 8.533zm-213.334-25.6a8.533 8.533 0 0 0 4.745-15.633l-25.6-17.067a8.586 8.586 0 0 0-4.745-1.434H93.87a8.533 8.533 0 0 0 0 17.066h31.573l23.45 15.633a8.516 8.516 0 0 0 4.71 1.435zM68.27 456.551c-4.713 0-8.533 3.82-8.533 8.533s3.82 8.533 8.533 8.533h68.267c4.713 0 8.533-3.82 8.533-8.533s-3.82-8.533-8.533-8.533H68.27z"/></symbol><symbol viewBox="0 0 512.003 512.003" id="sale" xmlns="http://www.w3.org/2000/svg"><path d="M477.958 262.633a15.004 15.004 0 0 1 0-13.263l19.096-39.065c10.632-21.751 2.208-47.676-19.178-59.023l-38.41-20.38a15.005 15.005 0 0 1-7.796-10.729l-7.512-42.829c-4.183-23.846-26.241-39.87-50.208-36.479l-43.053 6.09a15.004 15.004 0 0 1-12.613-4.099l-31.251-30.232c-17.401-16.834-44.661-16.835-62.061 0L193.72 42.859a15.01 15.01 0 0 1-12.613 4.099l-43.053-6.09c-23.975-3.393-46.025 12.633-50.208 36.479l-7.512 42.827a15.008 15.008 0 0 1-7.795 10.73l-38.41 20.38c-21.386 11.346-29.81 37.273-19.178 59.024l19.095 39.064a15.004 15.004 0 0 1 0 13.263L14.95 301.699c-10.632 21.751-2.208 47.676 19.178 59.023l38.41 20.38a15.005 15.005 0 0 1 7.796 10.729l7.512 42.829c3.808 21.708 22.422 36.932 43.815 36.93 2.107 0 4.245-.148 6.394-.452l43.053-6.09a15 15 0 0 1 12.613 4.099l31.251 30.232c8.702 8.418 19.864 12.626 31.03 12.625 11.163-.001 22.332-4.209 31.03-12.625l31.252-30.232c3.372-3.261 7.968-4.751 12.613-4.099l43.053 6.09c23.978 3.392 46.025-12.633 50.208-36.479l7.513-42.827a15.008 15.008 0 0 1 7.795-10.73l38.41-20.38c21.386-11.346 29.81-37.273 19.178-59.024l-19.096-39.065zm-13.923 72.002l-38.41 20.38c-12.246 6.499-20.645 18.057-23.04 31.713l-7.512 42.828a15.038 15.038 0 0 1-16.987 12.342l-43.053-6.09c-13.73-1.945-27.316 2.474-37.281 12.113L266.5 478.152a15.04 15.04 0 0 1-20.997 0l-31.251-30.232c-8.422-8.147-19.432-12.562-30.926-12.562-2.106 0-4.229.148-6.355.449l-43.053 6.09a15.042 15.042 0 0 1-16.987-12.342l-7.513-42.829c-2.396-13.656-10.794-25.215-23.041-31.712l-38.41-20.38a15.037 15.037 0 0 1-6.489-19.969L60.574 275.6c6.088-12.456 6.088-26.742 0-39.198l-19.096-39.065a15.037 15.037 0 0 1 6.489-19.969l38.41-20.38c12.246-6.499 20.645-18.057 23.04-31.713l7.512-42.828a15.038 15.038 0 0 1 16.987-12.342l43.053 6.09c13.725 1.943 27.316-2.474 37.281-12.113l31.252-30.232a15.04 15.04 0 0 1 20.997 0l31.251 30.232c9.965 9.64 23.554 14.056 37.281 12.113l43.053-6.09a15.04 15.04 0 0 1 16.987 12.342l7.512 42.829c2.396 13.656 10.794 25.215 23.041 31.712l38.41 20.38a15.037 15.037 0 0 1 6.489 19.969l-19.096 39.064c-6.088 12.455-6.088 26.743 0 39.198l19.096 39.064a15.039 15.039 0 0 1-6.488 19.972z"/><path d="M363.886 148.116c-5.765-5.766-15.115-5.766-20.881 0l-194.889 194.89c-5.766 5.766-5.766 15.115 0 20.881a14.72 14.72 0 0 0 10.44 4.325c3.778 0 7.558-1.441 10.44-4.325l194.889-194.889c5.768-5.767 5.768-15.115.001-20.882zm-166.945-25c-29.852 0-54.139 24.287-54.139 54.139s24.287 54.139 54.139 54.139 54.139-24.287 54.139-54.139-24.287-54.139-54.139-54.139zm0 78.747c-13.569 0-24.608-11.039-24.608-24.609 0-13.569 11.039-24.608 24.608-24.608s24.609 11.039 24.609 24.608c-.001 13.57-11.04 24.609-24.609 24.609zm118.12 78.747c-29.852 0-54.139 24.287-54.139 54.139s24.287 54.139 54.139 54.139c29.852 0 54.139-24.287 54.139-54.139s-24.287-54.139-54.139-54.139zm0 78.747c-13.569 0-24.609-11.039-24.609-24.608s11.039-24.608 24.609-24.608c13.569 0 24.608 11.039 24.608 24.608s-11.039 24.608-24.608 24.608z"/></symbol><symbol viewBox="0 0 30.239 30.239" id="search" xmlns="http://www.w3.org/2000/svg"><path d="M20.194 3.46c-4.613-4.613-12.121-4.613-16.734 0-4.612 4.614-4.612 12.121 0 16.735 4.108 4.107 10.506 4.547 15.116 1.34.097.459.319.897.676 1.254l6.718 6.718a2.498 2.498 0 0 0 3.535 0 2.496 2.496 0 0 0 0-3.535l-6.718-6.72a2.5 2.5 0 0 0-1.253-.674c3.209-4.611 2.769-11.008-1.34-15.118zm-2.121 14.614c-3.444 3.444-9.049 3.444-12.492 0-3.442-3.444-3.442-9.048 0-12.492 3.443-3.443 9.048-3.443 12.492 0 3.444 3.444 3.444 9.048 0 12.492z"/></symbol><symbol viewBox="0 0 24 24" id="vk" xmlns="http://www.w3.org/2000/svg"><path d="M12.145 19.5c3.472 0 2.234-2.198 2.502-2.83-.004-.472-.008-.926.008-1.202.22.062.739.325 1.811 1.367 1.655 1.67 2.078 2.665 3.415 2.665h2.461c.78 0 1.186-.323 1.389-.594.196-.262.388-.722.178-1.438-.549-1.724-3.751-4.701-3.95-5.015a2.84 2.84 0 0 1 .103-.175h-.002c.632-.835 3.044-4.449 3.399-5.895a.019.019 0 0 0 .002-.008c.192-.66.016-1.088-.166-1.33-.274-.362-.71-.545-1.299-.545h-2.461c-.824 0-1.449.415-1.765 1.172-.529 1.345-2.015 4.111-3.129 5.09a64.114 64.114 0 0 1 .007-3.233c.036-1.535.152-3.029-1.441-3.029H9.339c-.998 0-1.953 1.09-.919 2.384.904 1.134.325 1.766.52 4.912-.76-.815-2.112-3.016-3.068-5.829-.268-.761-.674-1.466-1.817-1.466H1.594C.596 4.501 0 5.045 0 5.956 0 8.002 4.529 19.5 12.145 19.5zM4.055 6.001c.217 0 .239 0 .4.457.979 2.883 3.175 7.149 4.779 7.149 1.205 0 1.205-1.235 1.205-1.7l-.001-3.702C10.372 6.98 9.926 6.37 9.633 6l3.508.004c.002.017-.02 4.095.01 5.083 0 1.403 1.114 2.207 2.853.447 1.835-2.071 3.104-5.167 3.155-5.293.075-.18.14-.241.376-.241h2.471l-.002.009c-.225 1.05-2.446 4.396-3.189 5.435l-.034.05c-.327.534-.593 1.124.045 1.954h.001c.058.07.209.234.429.462.684.706 3.03 3.12 3.238 4.08-.138.022-.288.006-2.613.011-.495 0-.882-.74-2.359-2.23-1.328-1.292-2.19-1.82-2.975-1.82-1.524 0-1.413 1.237-1.399 2.733.005 1.622-.005 1.109.006 1.211-.089.035-.344.105-1.009.105C5.8 18 1.668 7.929 1.509 6.004c.055-.005.812-.002 2.546-.003z"/></symbol></svg>